<?xml version="1.0" encoding="utf-8"?>
<!-- Generator: Adobe Illustrator 16.0.0, SVG Export Plug-In . SVG Version: 6.00 Build 0)  -->
<!DOCTYPE svg PUBLIC "-//W3C//DTD SVG 1.1//EN" "http://www.w3.org/Graphics/SVG/1.1/DTD/svg11.dtd">
<svg version="1.1"
	 id="Layer_1" xmlns:dc="http://purl.org/dc/elements/1.1/" xmlns:svg="http://www.w3.org/2000/svg" xmlns:rdf="http://www.w3.org/1999/02/22-rdf-syntax-ns#" xmlns:cc="http://creativecommons.org/ns#"
	 xmlns="http://www.w3.org/2000/svg" xmlns:xlink="http://www.w3.org/1999/xlink" x="0px" y="0px" width="1282.874px"
	 height="277.811px" viewBox="-466.872 384.582 1282.874 277.811" enable-background="new -466.872 384.582 1282.874 277.811"
	 xml:space="preserve">
<path fill="#D800B9" d="M64.76,427.945c-16.21,6.785-34.031,25.955-39.659,50.017c-7.128,30.487,22.534,43.38,24.967,39.152
	c2.863-4.967-5.315-6.646-6.999-22.465c-2.176-20.431,7.322-43.26,19.276-53.276c2.222-1.861,2.117,0.729,2.117,5.52
	c0,8.568-0.474,85.479-0.474,101.532c0,21.719-0.897,28.578-2.508,35.355c-1.632,6.868-4.257,11.509-2.268,13.297
	c2.222,1.999,11.708-2.758,17.201-10.422c6.585-9.193,8.891-20.234,9.305-32.224c0.5-14.453,0.479-37.388,0.5-50.469
	c0.02-11.998,0.202-47.13-0.21-68.25c-0.101-5.18-14.468-10.615-21.248-7.774 M640.387,529.592
	c-0.522,11.292-3.022,20.118-6.124,26.343c-6.006,12.053-18.468,15.795-23.759-1.531c-2.883-9.443-3.018-25.216-0.944-38.395
	c2.11-13.426,8.002-23.565,17.759-22.65C636.942,494.262,641.446,506.662,640.387,529.592L640.387,529.592z M478.151,599.647
	c-0.131,18.762-3.084,35.213-9.416,39.99c-8.98,6.774-21.052,1.693-18.552-11.998c2.211-12.115,12.671-24.487,27.993-39.604
	C478.177,588.035,478.209,591.483,478.151,599.647L478.151,599.647z M475.698,529.482c-0.549,10.284-3.215,20.616-6.124,26.454
	c-6.004,12.052-18.557,15.819-23.758-1.531c-3.557-11.854-2.705-27.197-0.945-36.864c2.283-12.543,7.818-24.18,17.759-24.18
	C472.295,493.361,477.061,503.965,475.698,529.482L475.698,529.482z M381.715,529.325c-0.589,10.893-2.714,19.998-6.124,26.611
	c-6.169,11.969-18.375,15.765-23.758-1.531c-3.881-12.472-2.56-29.478-0.945-38.663c2.396-13.633,8.395-23.297,17.76-22.381
	C378.267,494.301,382.943,506.664,381.715,529.325L381.715,529.325z M812.419,542.048c-2.352,0-3.425,2.424-4.313,6.504
	c-3.079,14.188-6.316,17.391-10.49,17.391c-4.663,0-8.853-7.025-9.93-21.087c-0.847-11.058-0.711-31.414,0.372-51.664
	c0.221-4.16-0.927-8.276-12.086-12.33c-4.802-1.744-11.782-4.312-15.257,4.078c-9.819,23.7-13.661,42.517-14.565,50.16
	c-0.047,0.396-0.532,0.477-0.617-0.448c-0.576-6.122-1.863-17.247-2.023-40.621c-0.031-4.561-0.997-8.442-6.031-11.62
	c-3.266-2.063-13.184-5.71-16.755-1.371c-3.095,3.549-6.678,13.1-10.401,24.42c-3.025,9.201-5.133,15.425-5.133,15.425
	s0.039-24.825,0.075-34.243c0.017-3.553-2.421-4.736-3.155-4.95c-3.308-0.96-9.823-2.563-12.59-2.563
	c-3.412,0-4.248,1.907-4.248,4.688c0,0.363-0.539,32.686-0.539,55.286c0,0.981,0,2.053,0.011,3.19
	c-1.888,10.388-8.01,24.489-14.667,24.489c-6.665,0-9.81-5.896-9.81-32.84c0-15.718,0.472-22.553,0.704-33.921
	c0.134-6.549,0.395-11.576,0.379-12.718c-0.049-3.499-6.1-5.263-8.915-5.915c-2.829-0.657-5.287-0.912-7.207-0.803
	c-2.717,0.153-4.639,1.936-4.639,4.387c0,1.314,0.015,3.814,0.015,3.814c-3.499-5.499-9.127-9.326-12.872-10.436
	c-10.086-2.995-20.61-0.341-28.549,10.768c-6.31,8.826-10.112,18.823-11.61,33.186c-1.094,10.5-0.736,21.147,1.208,30.153
	c-2.35,10.16-6.713,14.323-11.491,14.323c-6.936,0-11.964-11.321-11.38-30.9c0.385-12.879,2.962-21.916,5.778-34.99
	c1.201-5.574,0.226-8.492-2.222-11.289c-2.245-2.564-7.028-3.875-13.904-2.264c-4.897,1.149-11.9,2.385-18.307,3.334
	c0,0,0.386-1.542,0.703-4.262c1.667-14.262-13.83-13.104-18.774-8.549c-2.952,2.72-4.961,5.927-5.724,11.693
	c-1.209,9.152,6.255,13.469,6.255,13.469c-2.448,11.209-8.451,25.854-14.648,36.44c-3.319,5.673-5.859,9.876-9.138,14.344
	c-0.012-1.664-0.021-3.327-0.026-4.982c-0.075-23.567,0.238-42.116,0.377-48.802c0.135-6.549,0.397-11.443,0.383-12.584
	c-0.037-2.561-1.532-3.526-4.641-4.75c-2.749-1.082-5.999-1.832-9.37-2.094c-4.255-0.331-6.818,1.926-6.752,4.595
	c0.013,0.504,0.013,3.598,0.013,3.598c-3.499-5.499-9.128-9.326-12.872-10.436c-10.086-2.993-20.61-0.34-28.549,10.768
	c-6.309,8.826-10.439,21.212-11.61,33.076c-1.09,11.058-0.889,20.455,0.598,28.371c-1.604,7.926-6.215,16.215-11.429,16.215
	c-6.665,0-10.458-5.895-10.458-32.839c0-15.719,0.472-22.553,0.704-33.92c0.135-6.549,0.395-11.578,0.38-12.718
	c-0.049-3.499-6.101-5.263-8.916-5.916c-2.946-0.681-5.489-0.932-7.442-0.788c-2.577,0.192-4.389,2.5-4.389,4.221v3.966
	c-3.499-5.499-9.127-9.326-12.872-10.436c-10.086-2.993-20.552-0.297-28.549,10.768c-5.215,7.215-9.438,15.213-11.61,32.919
	c-0.628,5.117-0.905,9.908-0.869,14.387c-2.079,12.718-11.265,27.376-18.777,27.376c-4.396,0-8.584-8.527-8.584-26.701
	c0-24.209,1.499-58.677,1.752-61.999c0,0,9.493-0.161,11.331-0.183c4.735-0.052,9.023,0.06,15.33-0.263
	c3.164-0.161,6.211-11.514,2.946-12.919c-1.479-0.636-11.938-1.192-16.083-1.281c-3.486-0.079-13.191-0.797-13.191-0.797
	s0.871-22.878,1.073-25.295c0.172-2.015-2.434-3.052-3.929-3.681c-3.634-1.537-6.885-2.273-10.739-3.068
	c-5.325-1.098-7.74-0.023-8.212,4.471c-0.71,6.82-1.079,26.796-1.079,26.796c-3.907,0-17.254-0.764-21.163-0.764
	c-3.631,0-7.55,15.617-2.53,15.809c5.776,0.224,15.842,0.417,22.516,0.618c0,0-0.297,35.037-0.297,45.854
	c0,1.15,0.01,2.259,0.012,3.334c-3.672,19.144-16.609,29.483-16.609,29.483c2.778-12.664-2.896-22.174-13.119-30.225
	c-3.766-2.967-11.201-8.583-19.519-14.737c0,0,4.818-4.748,9.09-14.301c3.027-6.768,3.158-14.511-4.272-16.219
	c-12.278-2.823-22.401,6.193-25.42,15.82c-2.339,7.457-1.092,12.99,3.491,18.738c0.334,0.42,0.697,0.85,1.072,1.281
	c-2.771,5.342-6.579,12.534-9.803,18.111c-8.951,15.485-15.712,27.733-20.821,27.733c-4.085,0-4.03-12.436-4.03-24.078
	c0-10.037,0.741-25.127,1.333-40.751c0.196-5.167-2.388-8.11-6.719-10.776c-2.632-1.62-8.248-4.805-11.5-4.805
	c-4.869,0-18.915,0.663-32.188,39.054c-1.672,4.84-4.958,13.656-4.958,13.656l0.283-46.167c0-1.083-0.577-2.129-1.896-2.845
	c-2.237-1.215-8.21-3.698-13.521-3.698c-2.531,0-3.794,1.177-3.794,3.523l-0.463,72.229c0,5.488,0.143,11.891,0.686,14.691
	c0.541,2.803,1.417,5.084,2.501,6.441c1.083,1.354,2.336,2.387,4.402,2.813c1.922,0.396,12.45,1.748,12.998-2.275
	c0.655-4.821,0.681-10.036,6.208-29.486c8.606-30.281,19.827-45.056,25.102-50.303c0.922-0.917,1.975-0.972,1.925,0.529
	c-0.226,6.639-1.017,23.229-1.55,37.321c-1.429,37.715,5.432,44.706,15.237,44.706c7.501,0,18.075-7.454,29.411-26.32
	c7.066-11.758,13.928-23.286,18.857-31.596c3.436,3.181,7.291,6.604,11.144,10.26c8.953,8.497,11.892,16.571,9.942,24.231
	c-1.492,5.855-7.109,11.891-17.107,6.025c-2.914-1.712-4.158-3.033-7.088-4.963c-1.574-1.037-3.978-1.346-5.419-0.261
	c-3.743,2.822-5.884,6.412-7.106,10.856c-1.189,4.325,3.142,6.611,7.631,8.611c3.866,1.721,12.175,3.279,17.474,3.457
	c20.647,0.691,37.187-9.969,48.7-37.465c2.061,23.746,10.833,37.184,26.072,37.184c10.189,0,20.404-13.17,24.872-26.125
	c1.282,5.281,3.181,9.873,5.632,13.758c11.743,18.605,34.523,14.601,45.967-1.199c3.538-4.881,4.077-6.636,4.077-6.636
	c1.669,14.919,13.683,20.131,20.562,20.131c7.703,0,15.658-3.642,21.232-16.192c0.653,1.361,1.367,2.662,2.146,3.896
	c11.743,18.606,34.523,14.601,45.967-1.198c0.54-0.741,1.008-1.413,1.417-2.017l0.336,9.799c0,0-6.528,5.989-10.535,9.662
	c-17.637,16.181-31.047,28.458-32.033,42.753c-1.267,18.229,13.517,25.004,24.701,25.892c11.878,0.942,22.05-5.619,28.302-14.802
	c5.499-8.082,9.098-25.478,8.834-42.658c-0.105-6.88-0.278-15.627-0.415-25.004c6.199-7.199,13.184-16.297,19.614-26.947
	c7.008-11.605,14.519-27.192,18.364-39.321c0,0,6.525,0.056,13.489-0.4c2.228-0.146,2.867,0.309,2.456,1.942
	c-0.498,1.973-8.799,33.99-1.223,55.32c5.186,14.601,16.875,19.299,23.806,19.299c8.113,0,15.874-6.127,20.034-15.225
	c0.501,1.014,1.024,1.995,1.597,2.901c11.743,18.605,34.444,14.577,45.967-1.198c2.601-3.559,4.077-6.637,4.077-6.637
	c2.473,15.44,14.479,20.21,21.356,20.21c7.164,0,13.963-2.937,19.479-15.989c0.23,5.747,0.593,10.446,1.166,11.928
	c0.35,0.906,2.385,2.043,3.866,2.593c6.554,2.431,13.237,1.28,15.71,0.78c1.713-0.346,3.049-1.721,3.231-5.27
	c0.48-9.318,0.186-24.974,3.011-36.608c4.741-19.527,9.164-27.102,11.263-30.852c1.175-2.102,2.499-2.447,2.548-0.225
	c0.099,4.5,0.322,17.712,2.159,35.464c1.349,13.055,3.151,20.771,4.536,23.213c3.953,6.984,8.835,7.315,12.81,7.315
	c2.529,0,7.817-0.698,7.344-5.144c-0.23-2.166,0.174-15.555,4.849-34.792c3.053-12.563,8.143-23.914,9.979-28.063
	c0.677-1.53,0.991-0.324,0.98-0.089c-0.387,8.651-1.254,36.95,2.271,52.427c4.778,20.967,18.6,23.313,23.416,23.313
	c10.281,0,18.69-7.82,21.523-28.4c0.683-4.953-0.328-8.777-3.355-8.777"/>
<linearGradient id="SVGID_1_" gradientUnits="userSpaceOnUse" x1="-343.2368" y1="-506.7578" x2="-128.6934" y2="-292.2144" gradientTransform="matrix(1 0 0 -1 -92 124)">
	<stop  offset="0" style="stop-color:#FFD600"/>
	<stop  offset="0.5" style="stop-color:#FF0100"/>
	<stop  offset="1" style="stop-color:#D800B9"/>
</linearGradient>
<path fill="url(#SVGID_1_)" d="M-199.834,470.342c-0.627-13.723-2.807-23.093-5.993-31.292c-3.236-8.601-8.311-16.392-14.868-22.832
	c-6.438-6.558-14.231-11.634-22.833-14.871c-8.2-3.185-17.569-5.362-31.291-5.985c-13.747-0.63-18.14-0.779-53.147-0.779
	c-35.008,0-39.4,0.149-53.147,0.774c-13.721,0.628-23.09,2.808-31.291,5.994c-8.601,3.235-16.393,8.31-22.833,14.867
	c-6.558,6.438-11.634,14.229-14.872,22.831c-3.185,8.2-5.362,17.57-5.985,31.291c-0.63,13.748-0.779,18.139-0.779,53.146
	c0,35.01,0.149,39.402,0.779,53.148c0.625,13.721,2.805,23.091,5.991,31.291c3.235,8.6,8.311,16.393,14.869,22.831
	c6.438,6.558,14.23,11.632,22.832,14.867c8.198,3.188,17.569,5.366,31.291,5.994c13.749,0.627,18.139,0.774,53.147,0.774
	s39.4-0.147,53.147-0.774c13.722-0.628,23.09-2.806,31.291-5.994c17.315-6.694,31.003-20.383,37.699-37.698
	c3.188-8.2,5.366-17.57,5.993-31.291c0.626-13.748,0.775-18.139,0.775-53.146C-199.059,488.479-199.208,484.088-199.834,470.342z
	 M-223.038,575.579c-0.572,12.569-2.673,19.394-4.438,23.937c-4.337,11.242-13.222,20.128-24.465,24.464
	c-4.542,1.765-11.367,3.865-23.936,4.438c-13.59,0.62-17.667,0.751-52.089,0.751c-34.424,0-38.499-0.131-52.091-0.751
	c-12.567-0.573-19.392-2.674-23.936-4.438c-5.598-2.067-10.663-5.361-14.822-9.644c-4.282-4.158-7.576-9.221-9.644-14.82
	c-1.765-4.543-3.865-11.367-4.438-23.937c-0.62-13.591-0.751-17.669-0.751-52.089c0-34.422,0.132-38.497,0.751-52.091
	c0.574-12.569,2.673-19.395,4.438-23.936c2.067-5.6,5.363-10.666,9.644-14.823c4.159-4.281,9.224-7.576,14.823-9.642
	c4.542-1.767,11.367-3.865,23.936-4.44c13.592-0.619,17.669-0.751,52.089-0.751h-0.002c34.42,0,38.497,0.132,52.091,0.753
	c12.569,0.573,19.392,2.674,23.936,4.438c5.598,2.066,10.662,5.362,14.821,9.642c4.283,4.157,7.577,9.224,9.642,14.823
	c1.766,4.541,3.867,11.366,4.439,23.936c0.62,13.591,0.751,17.669,0.751,52.089C-222.287,557.91-222.417,561.986-223.038,575.579z"
	/>
<linearGradient id="SVGID_2_" gradientUnits="userSpaceOnUse" x1="-282.7725" y1="-446.2944" x2="-189.1595" y2="-352.6815" gradientTransform="matrix(1 0 0 -1 -92 124)">
	<stop  offset="0" style="stop-color:#FF6400"/>
	<stop  offset="0.5" style="stop-color:#FF0100"/>
	<stop  offset="1" style="stop-color:#FD0056"/>
</linearGradient>
<path fill="url(#SVGID_2_)" d="M-327.967,457.292c-36.558,0-66.194,29.639-66.194,66.196s29.636,66.194,66.194,66.194
	c36.56,0,66.195-29.637,66.195-66.194S-291.408,457.292-327.967,457.292z M-327.967,566.456
	c-23.729-0.002-42.968-19.238-42.966-42.97c0-23.729,19.237-42.968,42.968-42.968c23.731,0.002,42.968,19.238,42.968,42.968
	C-284.997,547.218-304.236,566.456-327.967,566.456z"/>
<linearGradient id="SVGID_3_" gradientUnits="userSpaceOnUse" x1="-178.0947" y1="-341.6162" x2="-156.2179" y2="-319.7394" gradientTransform="matrix(1 0 0 -1 -92 124)">
	<stop  offset="0" style="stop-color:#F30072"/>
	<stop  offset="1" style="stop-color:#E50097"/>
</linearGradient>
<path fill="url(#SVGID_3_)" d="M-243.688,454.679c0,8.542-6.925,15.468-15.468,15.468c-8.545,0-15.47-6.926-15.47-15.468
	c0-8.545,6.925-15.471,15.47-15.471C-250.612,439.208-243.688,446.134-243.688,454.679z"/>
<line fill="none" stroke="#D800B9" stroke-width="5" stroke-miterlimit="10" x1="-73.881" y1="384.582" x2="-73.881" y2="662.393"/>
</svg>
