<?xml version="1.0"?>
<svg xmlns="http://www.w3.org/2000/svg" id="Layer_1" enable-background="new 0 0 512 512" height="512px" viewBox="0 0 512 512" width="512px" hc="b0" hcx="0" class=""><g><g><g><path d="m242.304 160.697c-2.93-2.929-7.678-2.929-10.607 0s-2.929 7.678 0 10.606l19 19c1.465 1.464 3.385 2.197 5.304 2.197s3.839-.732 5.304-2.197l19-19c2.929-2.929 2.929-7.678 0-10.606-2.93-2.929-7.678-2.929-10.607 0l-5.658 5.658v-72.71l5.658 5.658c1.465 1.464 3.385 2.197 5.304 2.197s3.839-.732 5.304-2.197c2.929-2.929 2.929-7.678 0-10.606l-19-19c-2.93-2.929-7.678-2.929-10.607 0l-19 19c-2.929 2.929-2.929 7.678 0 10.606 2.93 2.929 7.678 2.929 10.607 0l6.734-6.735v74.863z" data-original="#000000" class="active-path" data-old_color="#000000" fill="#FFFFFF"/><path d="m242.304 400.947c-2.93-2.929-7.678-2.929-10.607 0s-2.929 7.678 0 10.606l19 19c1.465 1.464 3.385 2.197 5.304 2.197s3.839-.732 5.304-2.197l19-19c2.929-2.929 2.929-7.678 0-10.606-2.93-2.929-7.678-2.929-10.607 0l-5.658 5.658v-72.71l5.658 5.658c1.465 1.464 3.385 2.197 5.304 2.197s3.839-.732 5.304-2.197c2.929-2.929 2.929-7.678 0-10.606l-19-19c-2.93-2.929-7.678-2.929-10.607 0l-19 19c-2.929 2.929-2.929 7.678 0 10.606 2.93 2.929 7.678 2.929 10.607 0l6.734-6.735v74.863z" data-original="#000000" class="active-path" data-old_color="#000000" fill="#FFFFFF"/><path d="m400 0h-207.615c-4.143 0-7.5 3.358-7.5 7.5s3.357 7.5 7.5 7.5h200.115v25h-273v-25h40.475c4.143 0 7.5-3.358 7.5-7.5s-3.357-7.5-7.5-7.5h-47.975c-4.143 0-7.5 3.358-7.5 7.5v40c0 4.142 3.357 7.5 7.5 7.5h288c4.143 0 7.5-3.358 7.5-7.5v-40c0-4.142-3.357-7.5-7.5-7.5z" data-original="#000000" class="active-path" data-old_color="#000000" fill="#FFFFFF"/><path d="m400 228.5h-288c-4.143 0-7.5 3.358-7.5 7.5v40c0 4.142 3.357 7.5 7.5 7.5h207.308c4.143 0 7.5-3.358 7.5-7.5s-3.357-7.5-7.5-7.5h-199.808v-25h273v25h-40.73c-4.143 0-7.5 3.358-7.5 7.5s3.357 7.5 7.5 7.5h48.23c4.143 0 7.5-3.358 7.5-7.5v-40c0-4.142-3.357-7.5-7.5-7.5z" data-original="#000000" class="active-path" data-old_color="#000000" fill="#FFFFFF"/><path d="m400 457h-288c-4.143 0-7.5 3.358-7.5 7.5v40c0 4.142 3.357 7.5 7.5 7.5h79.975c4.143 0 7.5-3.358 7.5-7.5s-3.357-7.5-7.5-7.5h-72.475v-25h273v25h-167.91c-4.143 0-7.5 3.358-7.5 7.5s3.357 7.5 7.5 7.5h175.41c4.143 0 7.5-3.358 7.5-7.5v-40c0-4.142-3.357-7.5-7.5-7.5z" data-original="#000000" class="active-path" data-old_color="#000000" fill="#FFFFFF"/></g></g></g> </svg>
