<svg xmlns="http://www.w3.org/2000/svg" width="348" height="233" viewBox="0 0 348 233">
  <g id="Group_4359" data-name="Group 4359" transform="translate(-546 -183)">
    <text id="_404" data-name="404" transform="translate(546 371)" fill="#ebe9e9" font-size="200" font-family="DINAlternate-Bold, DIN Alternate" font-weight="700" letter-spacing="0.15em"><tspan x="0" y="0">404</tspan></text>
    <circle id="Ellipse_176" data-name="Ellipse 176" cx="72.5" cy="72.5" r="72.5" transform="translate(648 227)" fill="#ebe9e9"/>
    <path id="Path_7151" data-name="Path 7151" d="M801.354,526.223l3.367-9.367h1.135v-1.1l9.957-3.375-9.957-3.374V507.93h-1.13l-3.4-10.031-3.4,10.031h-1v1.035l-10.091,3.42,10.091,3.42v1.05h1l3.423,9.367Z" transform="translate(-106.176 -232.989)" fill="#fff"/>
    <path id="Path_7152" data-name="Path 7152" d="M801.354,526.223l3.367-9.367h1.135v-1.1l9.957-3.375-9.957-3.374V507.93h-1.13l-3.4-10.031-3.4,10.031h-1v1.035l-10.091,3.42,10.091,3.42v1.05h1l3.423,9.367Z" transform="translate(-57.176 -232.989)" fill="#fff"/>
    <path id="Path_7153" data-name="Path 7153" d="M0,0C25.822-19.664,49,0,49,0" transform="translate(695.5 328.5)" fill="none" stroke="#fff" stroke-width="4"/>
  </g>
</svg>
