<svg xmlns="http://www.w3.org/2000/svg" width="22.526" height="15.769" viewBox="0 0 22.526 15.769"><defs><style>.a{fill:#bbcbdd;}</style></defs><g transform="translate(0 0)"><path class="a" d="M2.107,5.111l8.114,6.427a2.064,2.064,0,0,0,1.367.4,2.059,2.059,0,0,0,1.367-.4l8.114-6.427c.65-.512.5-.932-.322-.932H2.431C1.606,4.179,1.459,4.6,2.107,5.111Z" transform="translate(-0.326 -4.179)"/><path class="a" d="M21.33,7.369,12.463,14.1a2.153,2.153,0,0,1-2.4,0L1.2,7.369C.539,6.87,0,7.137,0,7.963V19.008a1.506,1.506,0,0,0,1.5,1.5H21.025a1.506,1.506,0,0,0,1.5-1.5V7.963C22.526,7.137,21.988,6.87,21.33,7.369Z" transform="translate(0 -4.741)"/></g></svg>