<svg xmlns="http://www.w3.org/2000/svg" width="14.759" height="11.184" viewBox="0 0 14.759 11.184"><defs><style>.a{fill:#bbcbdd;}</style></defs><g transform="translate(0 0)"><g transform="translate(0 0)"><g transform="translate(0 0)"><path class="a" d="M144.52.759H133.264a1.718,1.718,0,0,0-1.752,1.678v7.827a1.718,1.718,0,0,0,1.752,1.678H144.52a1.718,1.718,0,0,0,1.752-1.678V2.437A1.718,1.718,0,0,0,144.52.759Zm0,9.7H133.264c-.142,0-.266-.092-.266-.2V3.472l5.091,4.288a.581.581,0,0,0,.374.136h.86a.581.581,0,0,0,.374-.136l5.091-4.288v6.792C144.786,10.369,144.662,10.461,144.52,10.461Zm-5.628-4.036L133.941,2.24h9.9Z" transform="translate(-131.512 -0.759)"/></g></g></g></svg>