<svg xmlns="http://www.w3.org/2000/svg" width="7.076" height="12.957" viewBox="0 0 7.076 12.957"><defs><style>.a{fill:#bbcbdd;fill-rule:evenodd;}</style></defs><g transform="translate(0 0)"><g transform="translate(0 0)"><g transform="translate(0 0)"><path class="a" d="M184.56,1.336l-1.7,0a2.965,2.965,0,0,0-3.139,3.189v1.47h-1.706a.266.266,0,0,0-.267.264v2.13a.266.266,0,0,0,.267.264h1.706v5.375a.265.265,0,0,0,.267.264h2.226a.266.266,0,0,0,.267-.264V8.651h2a.265.265,0,0,0,.267-.264V6.257a.263.263,0,0,0-.078-.187.268.268,0,0,0-.189-.078h-2V4.746c0-.6.144-.9.932-.9h1.143a.265.265,0,0,0,.267-.264V1.6a.266.266,0,0,0-.266-.264Z" transform="translate(-177.75 -1.333)"/></g></g></g></svg>