<svg xmlns="http://www.w3.org/2000/svg" width="95" height="61" viewBox="0 0 95 61">
  <g id="Group_4384" data-name="Group 4384" transform="translate(-948 -2779)">
    <g id="Group_4344" data-name="Group 4344">
      <rect id="Rectangle_1042" data-name="Rectangle 1042" width="62" height="61" rx="30.5" transform="translate(948 2779)" fill="#eff4f7"/>
    </g>
    <g id="Group_4383" data-name="Group 4383" transform="translate(-98 -0.5)">
      <g id="Path_7164" data-name="Path 7164" transform="translate(1126.821 2815.334) rotate(180)" fill="none">
        <path d="M25.321,0A25.321,25.321,0,0,1,50.641,25.321c-.07.075-49.993-.2-50.641,0A25.321,25.321,0,0,1,25.321,0Z" stroke="none"/>
        <path d="M 25.32051277160645 4 C 22.44050216674805 4 19.64876365661621 4.563159942626953 17.02283096313477 5.673830032348633 C 14.48448181152344 6.747461318969727 12.20396423339844 8.285301208496094 10.24463272094727 10.24463081359863 C 8.285301208496094 12.20396041870117 6.747463226318359 14.48448085784912 5.673831939697266 17.02283096313477 C 5.095314025878906 18.39060974121094 4.665370941162109 19.80320930480957 4.386154174804688 21.25000190734863 C 5.774612426757812 21.24580955505371 7.549423217773438 21.24483108520508 9.830783843994141 21.24483108520508 C 16.86094284057617 21.24483108520508 26.28371238708496 21.27387046813965 34.59726333618164 21.29949951171875 C 39.22143936157227 21.31375503540039 43.35702133178711 21.32649993896484 46.27043914794922 21.33151245117188 C 45.99174499511719 19.85630035400391 45.55655670166016 18.41625213623047 44.96719360351562 17.02283096313477 C 43.89356231689453 14.48448085784912 42.35572052001953 12.20396041870117 40.39639282226562 10.24463081359863 C 38.43706512451172 8.285301208496094 36.15654373168945 6.747461318969727 33.61819458007812 5.673830032348633 C 30.99226188659668 4.563159942626953 28.20052337646484 4 25.32051277160645 4 M 25.32051277160645 0 C 39.30464172363281 0 50.64102172851562 11.33638095855713 50.64102172851562 25.32051086425781 C 50.63226699829102 25.32988357543945 49.84675979614258 25.33376693725586 48.47989654541016 25.33376693725586 C 41.93194198608398 25.33376693725586 22.00588417053223 25.24483489990234 9.830783843994141 25.24483489990234 C 4.165573120117188 25.24483489990234 0.1800765991210938 25.26408386230469 3.814697265625e-06 25.32051086425781 C 3.814697265625e-06 11.33638095855713 11.33638381958008 0 25.32051277160645 0 Z" stroke="none" fill="#1e85e8"/>
      </g>
      <rect id="Rectangle_1290" data-name="Rectangle 1290" width="10.128" height="4.051" rx="2.026" transform="translate(1062 2790)" fill="#1e85e8"/>
      <rect id="Rectangle_1291" data-name="Rectangle 1291" width="10.128" height="4.051" rx="2.026" transform="translate(1130.872 2790)" fill="#1e85e8"/>
      <rect id="Rectangle_1292" data-name="Rectangle 1292" width="10.128" height="4.051" rx="2.026" transform="translate(1103.526 2819.372) rotate(90)" fill="#1e85e8"/>
      <rect id="Rectangle_1293" data-name="Rectangle 1293" width="10.128" height="4.051" rx="2.026" transform="translate(1118.953 2814.986) rotate(60)" fill="#1e85e8"/>
      <rect id="Rectangle_1296" data-name="Rectangle 1296" width="10.128" height="4.051" rx="2.026" transform="translate(1078.133 2807.959) rotate(150)" fill="#1e85e8"/>
      <rect id="Rectangle_1294" data-name="Rectangle 1294" width="10.128" height="4.051" rx="2.026" transform="translate(1127.499 2803.945) rotate(30)" fill="#1e85e8"/>
      <rect id="Rectangle_1295" data-name="Rectangle 1295" width="10.128" height="4.051" rx="2.026" transform="translate(1089.174 2816.505) rotate(120)" fill="#1e85e8"/>
    </g>
  </g>
</svg>
