<svg xmlns="http://www.w3.org/2000/svg" width="13.35" height="12.445" viewBox="0 0 13.35 12.445"><defs><style>.a{fill:#bbcbdd;fill-rule:evenodd;}</style></defs><g transform="translate(0)"><g transform="translate(0 0)"><g transform="translate(0 0)"><path class="a" d="M13.349,9.448v4.815H10.488V9.771c0-1.129-.414-1.9-1.45-1.9A1.562,1.562,0,0,0,7.571,8.893a1.867,1.867,0,0,0-.095.681v4.69H4.614s.039-7.609,0-8.4H7.475v1.19l-.019.027h.019V7.056a2.853,2.853,0,0,1,2.579-1.388c1.883,0,3.295,1.2,3.295,3.78ZM1.62,1.818a1.458,1.458,0,1,0-.038,2.9H1.6A1.478,1.478,0,0,0,3.22,3.269a1.471,1.471,0,0,0-1.6-1.451ZM.17,14.264H3.031v-8.4H.17v8.4Z" transform="translate(0 -1.818)"/></g></g></g></svg>