<svg xmlns="http://www.w3.org/2000/svg" width="211.889" height="49.927" viewBox="0 0 211.889 49.927">
  <path id="Path_1" data-name="Path 1" d="M992.751,534.66l-14.337-8.278v5.829H957.283v-5.041h10.61V522.5H950.916v9.709h-4.958V522.5h-6.3v15.1l-13.552-15.1h-5.547v9.709h-5.1V522.5h-6.508v9.709H895.022V522.5h-6.367v9.709H873.737v-5.041h10.611V522.5H867.371v9.709H856.229v-4.97h8.347V522.5H841.233v4.739h8.347v4.97H838.327V522.5h-6.508v9.709h-5.242a7.294,7.294,0,0,0-2.037-7.922q-2.464-1.788-7.623-1.787h-2.726v4.456h2.763a3.92,3.92,0,0,1,2.575.747,2.667,2.667,0,0,1,.9,2.17,2.756,2.756,0,0,1-.859,2.224c-.046.039-.1.075-.148.111H806.169c.074-.094.145-.19.213-.289a5.1,5.1,0,0,0,.858-2.942,5.39,5.39,0,0,0-2.538-4.845,12.029,12.029,0,0,0-5.613-1.56l2.722-8.031h1v-.962l8.743-2.963-8.743-2.962v-.95h-.993L798.83,497.9l-2.985,8.808h-.875v.909l-8.861,3,8.861,3v.922h.879l2.71,7.995c-.445-.023-.9-.037-1.379-.037h-2.955v4.456h3.262a3.86,3.86,0,0,1,2.541.715,2.694,2.694,0,0,1,.846,2.179,2.34,2.34,0,0,1-.838,1.972,2.594,2.594,0,0,1-.725.386H780.862V537.1h18.492a4.536,4.536,0,0,1,1.966.679,2.741,2.741,0,0,1,1.11,2.407,2.525,2.525,0,0,1-1.046,2.281,6.639,6.639,0,0,1-3.5.688h-3.658v4.669h4.92q5.011,0,7.508-1.815a6.311,6.311,0,0,0,2.5-5.462,6.809,6.809,0,0,0-.838-3.447h5.879a5.975,5.975,0,0,1,3.287,1.013,6.341,6.341,0,0,1,1.771,2.4l3.223,7.314h7.147l-4.031-8.694a7.576,7.576,0,0,0-1.3-2.031h7.531v10.724h6.508V537.1H849.58v10.724h6.649V537.1h11.141v10.724h17.261v-4.739H873.737V537.1h14.918v10.724h17.26v-4.881H895.022V537.1h13.936v10.724h6.508V537.1h5.1v10.724h6.3V531.915l14.148,15.911h4.951V537.1h4.958v10.724h17.259v-4.739H957.283V537.1h21.131v5.836Z" transform="translate(-780.862 -497.899)" fill="#fff"/>
</svg>
