<svg xmlns="http://www.w3.org/2000/svg" width="779.63" height="183.703" viewBox="0 0 779.63 183.703">
  <path id="Path_7230" data-name="Path 7230" d="M1560.493,633.159,1507.741,602.7v21.449h-77.75V605.6h39.041V588.425h-62.466v35.723h-18.243V588.425h-23.163v55.548L1315.3,588.425h-20.408v35.723h-18.76V588.425h-23.944v35.723h-51.276V588.425h-23.427v35.723h-54.891V605.6h39.042V588.425h-62.465v35.723H1058.17V605.862h30.713V588.425h-85.889v17.437h30.712v18.286H992.3V588.425H968.356v35.723H949.07a23.56,23.56,0,0,0,1.567-8.762q0-13.81-9.063-20.386t-28.047-6.576H903.5v16.4h10.165q6.184,0,9.474,2.749t3.294,7.986q0,5.5-3.161,8.183c-.17.144-.363.276-.545.408H873.976c.273-.347.535-.7.783-1.065a18.772,18.772,0,0,0,3.157-10.823q0-11.817-9.337-17.826c-4.965-3.194-11.873-5.092-20.652-5.74l10.014-29.549h3.668v-3.54l32.169-10.9L861.61,533.8v-3.494h-3.653L846.975,497.9l-10.983,32.41h-3.22v3.345l-32.6,11.049,32.6,11.049v3.394h3.234l9.971,29.417c-1.636-.085-3.314-.137-5.073-.137H830.029v16.4h12q6.234,0,9.349,2.631t3.114,8.019q0,4.864-3.083,7.256a9.545,9.545,0,0,1-2.667,1.42H780.862v17.995H848.9a16.689,16.689,0,0,1,7.235,2.5q4.082,2.868,4.083,8.857,0,5.864-3.85,8.394t-12.88,2.531h-13.46V681.6h18.1q18.436,0,27.627-6.678t9.189-20.1a25.054,25.054,0,0,0-3.083-12.683H903.5s8.2.138,12.093,3.729a23.332,23.332,0,0,1,6.516,8.818l11.86,26.912h26.3l-14.83-31.987a27.873,27.873,0,0,0-4.786-7.472h27.71V681.6H992.3V642.143h41.406V681.6h24.464V642.143h40.994V681.6h63.509V664.163h-40.086v-22.02h54.891V681.6h63.506V663.642h-40.079v-21.5h51.276V681.6h23.944V642.143h18.76V681.6h23.163V623.057l52.057,58.544h18.215V642.143h18.243V681.6h63.5V664.163H1429.99v-22.02h77.75v21.471Z" transform="translate(-780.862 -497.899)" fill="#023873"/>
</svg>
