<svg xmlns="http://www.w3.org/2000/svg" width="241.314" height="56.86" viewBox="0 0 241.314 56.86">
  <path id="Path_3553" data-name="Path 3553" d="M1022.176,539.765l-16.328-9.428v6.639H981.782v-5.741h12.084v-5.317H974.531v11.057h-5.646V525.919h-7.17v17.193l-15.434-17.193h-6.317v11.057h-5.807V525.919h-7.411v11.057H910.875V525.919h-7.251v11.057h-16.99v-5.741h12.084v-5.317H879.384v11.057H866.7v-5.66H876.2v-5.4H849.617v5.4h9.506v5.66H846.307V525.919H838.9v11.057h-5.97a7.29,7.29,0,0,0,.485-2.712q0-4.275-2.805-6.31t-8.681-2.035h-3.1v5.075h3.146a4.465,4.465,0,0,1,2.932.851,3.037,3.037,0,0,1,1.02,2.472,3.139,3.139,0,0,1-.978,2.533c-.053.045-.112.085-.169.126H809.683c.084-.107.166-.217.242-.33a5.81,5.81,0,0,0,.977-3.35,6.139,6.139,0,0,0-2.89-5.518A13.7,13.7,0,0,0,801.62,526l3.1-9.146h1.135v-1.1l9.957-3.375-9.957-3.374V507.93h-1.13l-3.4-10.031-3.4,10.031h-1v1.035l-10.091,3.42,10.091,3.42v1.05h1l3.086,9.105c-.506-.026-1.026-.042-1.57-.042H796.08v5.075h3.715a4.4,4.4,0,0,1,2.894.814,3.068,3.068,0,0,1,.964,2.482,2.665,2.665,0,0,1-.954,2.246,2.956,2.956,0,0,1-.826.44H780.862v5.57h21.06a5.167,5.167,0,0,1,2.24.774,3.121,3.121,0,0,1,1.264,2.742,2.875,2.875,0,0,1-1.192,2.6,7.56,7.56,0,0,1-3.987.783H796.08v5.317h5.6q5.707,0,8.551-2.067a7.187,7.187,0,0,0,2.844-6.221,7.755,7.755,0,0,0-.954-3.926h6.7s2.539.043,3.743,1.154a7.221,7.221,0,0,1,2.017,2.729l3.671,8.33h8.14l-4.59-9.9a8.629,8.629,0,0,0-1.482-2.313H838.9v12.213h7.411V542.546h12.816v12.213H866.7V542.546h12.689v12.213h19.658v-5.4H886.634v-6.816h16.99v12.213h19.656V549.2H910.875v-6.655h15.871v12.213h7.411V542.546h5.807v12.213h7.169V536.638l16.113,18.121h5.638V542.546h5.646v12.213h19.656v-5.4H981.782v-6.816h24.066v6.646Z" transform="translate(-780.862 -497.899)" fill="#1e85e8"/>
</svg>
