<svg xmlns="http://www.w3.org/2000/svg" width="75.101" height="72.834" viewBox="0 0 75.101 72.834">
  <g id="Group_4342" data-name="Group 4342" transform="translate(-119.899 -2772.166)">
    <rect id="Rectangle_1043" data-name="Rectangle 1043" width="62" height="61" rx="30.5" transform="translate(133 2784)" fill="#eff4f7"/>
    <g id="nut" transform="translate(116.349 2771.823)">
      <g id="Group_3375" data-name="Group 3375" transform="translate(3.651 0.638)">
        <g id="Group_3374" data-name="Group 3374" transform="translate(0 0)">
          <path id="Path_3578" data-name="Path 3578" d="M90.879,48.668l-6.453-6.453,1.132-2.348a2.927,2.927,0,1,0-5.272-2.543l-.244.507-2.055-2.055,1.132-2.347a2.927,2.927,0,1,0-5.272-2.543l-.244.507-2.055-2.055,1.132-2.348a2.927,2.927,0,0,0-4.706-3.341h0a2.916,2.916,0,0,0-.566.8l-.244.507L65.109,22.9l1.132-2.348a2.927,2.927,0,0,0-4.706-3.341,4.514,4.514,0,0,0-.81,1.3L58,15.786l4.829-4.829a2.931,2.931,0,0,0,0-4.139L57.492,1.484a2.954,2.954,0,0,0-4.139,0l-5.9,5.9a.976.976,0,0,0,1.38,1.38L50.455,7.14l6.714,6.714L46.592,24.432l-6.714-6.714,5.558-5.558a.976.976,0,1,0-1.38-1.38l-9.834,9.834a2.954,2.954,0,0,0,0,4.139l5.335,5.335a2.957,2.957,0,0,0,4.139,0l4.829-4.829,6.035,6.035-1.132,2.348A2.927,2.927,0,1,0,58.7,36.186l.244-.507L61,37.734l-1.132,2.347a2.926,2.926,0,0,0,3.6,4.035,2.906,2.906,0,0,0,1.671-1.492l.244-.507,2.055,2.055-1.132,2.347a2.927,2.927,0,1,0,5.272,2.543l.244-.507,2.055,2.055L72.745,52.96A2.927,2.927,0,1,0,78.016,55.5L78.261,55l3.145,3.145a2.954,2.954,0,0,0,4.139,0l5.334-5.335A2.954,2.954,0,0,0,90.879,48.668ZM42.316,28.709a.977.977,0,0,1-1.38,0L35.6,23.374a.985.985,0,0,1,0-1.38l2.9-2.9,6.714,6.714Zm9.52-22.948,2.9-2.9a.985.985,0,0,1,1.379,0L61.447,8.2a.976.976,0,0,1,0,1.38l-2.9,2.9ZM49.9,23.88l6.714-6.714,3.209,3.209-4.37,9.059Zm7.038,11.458a.976.976,0,0,1-1.757-.848l7.542-15.636a.975.975,0,0,1,1.757.848Zm2.9-1.52,4.37-9.059,2.055,2.055L61.9,35.873Zm3.54,7.96a.976.976,0,0,1-1.757-.848l7.542-15.636a.976.976,0,0,1,1.757.848Zm2.9-1.52L70.65,31.2l2.055,2.055-4.37,9.059Zm3.54,7.96a.976.976,0,0,1-1.757-.848L75.6,31.733a.976.976,0,0,1,1.757.848Zm2.9-1.521,4.37-9.059,2.055,2.055-4.37,9.059Zm3.54,7.96a.976.976,0,0,1-1.757-.848l7.542-15.636a.975.975,0,0,1,1.757.848ZM89.5,51.427l-5.334,5.335a.976.976,0,0,1-1.38,0l-3.626-3.626,4.37-9.059L89.5,50.047a.976.976,0,0,1,0,1.38Z" transform="translate(-33.376 -0.638)" fill="#1e85e8" stroke="#1e85e8" stroke-width="0.2"/>
        </g>
      </g>
    </g>
  </g>
</svg>
