<svg xmlns="http://www.w3.org/2000/svg" width="69.7" height="66.7" viewBox="0 0 69.7 66.7">
  <g id="Group_4343" data-name="Group 4343" transform="translate(-545 -2775.3)">
    <rect id="Rectangle_1041" data-name="Rectangle 1041" width="62" height="61" rx="30.5" transform="translate(545 2781)" fill="#eff4f7"/>
    <g id="beam" transform="translate(559.5 2775.5)">
      <g id="Group_3377" data-name="Group 3377" transform="translate(0 0)">
        <g id="Group_3376" data-name="Group 3376">
          <path id="Path_3579" data-name="Path 3579" d="M55,6.417V.917C55,.9,54.994.9,54.993.884A.9.9,0,0,0,54.93.566v0c0-.008-.01-.015-.014-.023A.9.9,0,0,0,54.751.3a.9.9,0,0,0-.07-.063.9.9,0,0,0-.191-.129A.876.876,0,0,0,54.4.065.9.9,0,0,0,54.083,0H24.75A.917.917,0,0,0,24.1.269L.269,24.1v0a.907.907,0,0,0-.176.262,1.184,1.184,0,0,0-.08.328c0,.02-.011.037-.011.057v5.5a.917.917,0,0,0,.917.917H7.792a4.13,4.13,0,0,1,4.125,4.125v1L.269,47.935A.93.93,0,0,0,0,48.583v5.5A.917.917,0,0,0,.917,55H30.25a.912.912,0,0,0,.36-.074c.012-.005.021-.017.033-.022a.916.916,0,0,0,.262-.182l.009-.006L49.231,35.481l5.5-5.5A.917.917,0,0,0,55,29.333v-5.5c0-.012-.006-.021-.007-.033a.9.9,0,0,0-.063-.318v0c0-.008-.01-.015-.014-.023a.95.95,0,0,0-.424-.435.876.876,0,0,0-.087-.041.9.9,0,0,0-.32-.065H47.208a.879.879,0,0,0-.229.046.888.888,0,0,0-.229-.046,4.116,4.116,0,0,1-4.09-3.78L54.731,7.065A.929.929,0,0,0,55,6.417ZM25.13,1.833H51.87l-22,22H3.13ZM11.917,38.88v4.662a4.13,4.13,0,0,1-4.125,4.125H3.13ZM29.333,53.167H1.833V49.5H7.792a5.965,5.965,0,0,0,5.958-5.958v-8.25a5.965,5.965,0,0,0-5.958-5.958H1.833V25.667h27.5v3.667H23.375a5.965,5.965,0,0,0-5.958,5.958v8.25A5.965,5.965,0,0,0,23.375,49.5h5.958v3.667ZM53.167,28.954,47.919,34.2,31.167,51.791V48.95L49.231,29.981l3.935-3.935v2.907Zm-6.417-4.2a.879.879,0,0,0,.229-.046.888.888,0,0,0,.229.046H51.87L47.919,28.7,29.857,47.667H23.375a4.13,4.13,0,0,1-4.125-4.125v-8.25a4.13,4.13,0,0,1,4.125-4.125H30.25A.923.923,0,0,0,30.9,30.9L41.107,20.689A5.965,5.965,0,0,0,46.75,24.75ZM53.167,6.037,41.061,18.143h0l-9.893,9.893V25.13l22-22V6.037Z" transform="translate(0 0)" fill="#1e85e8" stroke="#1e85e8" stroke-width="0.4"/>
          <path id="Path_3580" data-name="Path 3580" d="M206.068,400.659a.917.917,0,0,0-1,.2.964.964,0,0,0-.266.651.917.917,0,1,0,1.268-.852Z" transform="translate(-182.8 -357.557)" fill="#1e85e8" stroke="#1e85e8" stroke-width="0.4"/>
          <path id="Path_3581" data-name="Path 3581" d="M232.461,364.924a.917.917,0,0,0-.88.258h0l-.917.961a.917.917,0,0,0,1.327,1.266l.917-.961a.917.917,0,0,0-.447-1.524Z" transform="translate(-205.661 -325.7)" fill="#1e85e8" stroke="#1e85e8" stroke-width="0.4"/>
          <path id="Path_3582" data-name="Path 3582" d="M265.7,329.424l-.917.961a.917.917,0,1,0,1.327,1.266l.917-.961a.917.917,0,1,0-1.327-1.266Z" transform="translate(-236.116 -293.783)" fill="#1e85e8" stroke="#1e85e8" stroke-width="0.4"/>
          <path id="Path_3583" data-name="Path 3583" d="M299.835,293.666l-.917.961a.917.917,0,0,0,1.327,1.266l.917-.961a.917.917,0,1,0-1.327-1.266Z" transform="translate(-266.581 -261.866)" fill="#1e85e8" stroke="#1e85e8" stroke-width="0.4"/>
          <path id="Path_3584" data-name="Path 3584" d="M334.848,257.634a.917.917,0,0,0-.881.26l-.917.961a.917.917,0,0,0,1.327,1.266l.917-.961a.917.917,0,0,0-.446-1.526Z" transform="translate(-297.048 -229.935)" fill="#1e85e8" stroke="#1e85e8" stroke-width="0.4"/>
          <path id="Path_3585" data-name="Path 3585" d="M367.5,230.845a.917.917,0,0,0-.565.852.87.87,0,0,0,.266.642.908.908,0,0,0,1.3,0,.872.872,0,0,0,.266-.642.948.948,0,0,0-.266-.651A.917.917,0,0,0,367.5,230.845Z" transform="translate(-327.515 -205.985)" fill="#1e85e8" stroke="#1e85e8" stroke-width="0.4"/>
        </g>
      </g>
    </g>
  </g>
</svg>
