<svg xmlns="http://www.w3.org/2000/svg" width="15.278" height="12.109" viewBox="0 0 15.278 12.109"><defs><style>.a{fill:#bbcbdd;fill-rule:evenodd;}</style></defs><g transform="translate(0 0)"><g transform="translate(0 0)"><g transform="translate(0 0)"><path class="a" d="M77.348,4.16a6.381,6.381,0,0,1-1.8.482,3.085,3.085,0,0,0,1.378-1.691,6.415,6.415,0,0,1-1.992.742,3.162,3.162,0,0,0-2.288-.966,3.1,3.1,0,0,0-3.134,3.057,3,3,0,0,0,.081.7,8.974,8.974,0,0,1-6.46-3.2,2.978,2.978,0,0,0-.424,1.537A3.038,3.038,0,0,0,64.1,7.368a3.194,3.194,0,0,1-1.42-.384v.038a3.081,3.081,0,0,0,2.514,3,3.249,3.249,0,0,1-.826.107,3.081,3.081,0,0,1-.59-.057,3.127,3.127,0,0,0,2.927,2.124A6.389,6.389,0,0,1,62.817,13.5a6.825,6.825,0,0,1-.748-.042,9.021,9.021,0,0,0,4.8,1.376,8.743,8.743,0,0,0,8.917-8.7l-.011-.4a6.178,6.178,0,0,0,1.568-1.58Z" transform="translate(-62.069 -2.727)"/></g></g></g></svg>